<svg width="500" height="250" viewBox="0 0 500 250" fill="none" xmlns="http://www.w3.org/2000/svg">
<path d="M153.051 174L159.604 189.388L176.102 190.935L163.654 201.993L167.297 218.337L153.051 209.783L138.805 218.337L142.448 201.993L130 190.935L146.498 189.388L153.051 174Z" fill="#C4C4C4"/>
<path d="M201.525 174L208.079 189.388L224.576 190.935L212.129 201.993L215.772 218.337L201.525 209.783L187.279 218.337L190.922 201.993L178.475 190.935L194.972 189.388L201.525 174Z" fill="#C4C4C4"/>
<path d="M250 174L256.553 189.388L273.051 190.935L260.603 201.993L264.246 218.337L250 209.783L235.754 218.337L239.397 201.993L226.949 190.935L243.447 189.388L250 174Z" fill="#C4C4C4"/>
<path d="M298.474 174L305.028 189.388L321.525 190.935L309.078 201.993L312.721 218.337L298.474 209.783L284.228 218.337L287.871 201.993L275.423 190.935L291.921 189.388L298.474 174Z" fill="#C4C4C4"/>
<path d="M346.949 174L353.502 189.388L370 190.935L357.552 201.993L361.195 218.337L346.949 209.783L332.703 218.337L336.346 201.993L323.898 190.935L340.396 189.388L346.949 174Z" fill="#C4C4C4"/>
</svg>
